# xmcd
#
# Track frame offsets:
#	150
#	29257
#	46900
#	77892
#	113060
#	131565
#	145617
#	159137
#	174367
#	191935
#	207667
#	221475
#	239695
#	254209
#	269087
#
# Disc length: 3818
#
# Revision: 2
# Processed by: cddbd v1.5.1PL0 Copyright (c) Steve Scherf et al.
# Submitted via: audiograbber 1.83.01
# Normalized: r1:DSETVAR1
#
DISCID=e40ee80f
DTITLE=Various Artist - Soul Classics 1970 - (Volume 04)
DYEAR=1999
DGENRE=Soul
TTITLE0=Wilson Pickett - Engine Number 9
TTITLE1=Aretha Franklin - Call Me
TTITLE2=Donny Hathaway - The Ghetto
TTITLE3=Curtis Mayfield - If There's A Hell Below We're All Going To (Don't Worry)
TTITLE4=Isaac Hayes - I Stand Accused
TTITLE5=The Staples Singers - Heavy Makes You Happy (Sha-Na-Boom Boom)
TTITLE6=Aretha Franklin - Don't Play That Song (You Lied)
TTITLE7=Eddie Floyd - My Girl
TTITLE8=Charles Wright and The Wartts 103 rd Street Rhythm Band - Express Yourself
TTITLE9=Johnnie Taylor - Steal Away
TTITLE10=The Emotions - Heart Association
TTITLE11=Aretha Franklin - Spirit In The Dark
TTITLE12=Clarence Carter - Patches
TTITLE13=Rufus Thomas - Do The Funky Chicken
TTITLE14=Brook Benton - Rainy Night In Georgia
EXTD=
EXTT0=
EXTT1=
EXTT2=
EXTT3=
EXTT4=
EXTT5=
EXTT6=
EXTT7=
EXTT8=
EXTT9=
EXTT10=
EXTT11=
EXTT12=
EXTT13=
EXTT14=
PLAYORDER=
